<?xml version="1.0" encoding="utf-8"?>
<!-- Generator: Adobe Illustrator 25.1.0, SVG Export Plug-In . SVG Version: 6.00 Build 0)  -->
<svg version="1.1" id="Layer_1" xmlns="http://www.w3.org/2000/svg" xmlns:xlink="http://www.w3.org/1999/xlink" x="0px" y="0px"
	 viewBox="0 0 1024 1024" style="enable-background:new 0 0 1024 1024;" xml:space="preserve">
<g>
	<path d="M571.1,11.8c127.8,0,221.7,19.9,281.9,59.8c60.1,39.9,90.2,97.9,90.2,174.2c0,18.9-2.1,36.4-6.3,52.2
		c-4.2,15.9-9.6,30.3-16.2,43.3c-6.6,13-14.1,24.6-22.5,34.7c-8.4,10.1-17,19-25.8,26.4c-20.7,18.1-44.1,32.2-70.1,42.3v9.9
		c41,4.9,77.8,17.2,110.4,37c13.7,8.4,27.1,18.8,40.3,31.4c13.2,12.6,25,27.8,35.4,45.6c10.3,17.8,18.7,38.6,25.1,62.1
		c6.4,23.6,9.6,50.6,9.6,81c0,46.3-8.4,87.9-25.1,124.9c-16.8,37-41.6,68.4-74.7,94.2c-33.1,25.8-74.3,45.5-123.6,59.2
		c-49.4,13.6-106.6,20.5-171.8,20.5c-60.4,0-109.5-3.8-147.4-11.2c-37.9-7.5-67.4-18.4-88.6-32.7c-21.1-14.3-35.6-31.6-43.3-51.9
		c-7.7-20.3-11.6-43.2-11.6-68.7v-723c0-24.2-16.8-36.4-50.2-36.4c-24.2,0-48.8,3.6-73.7,10.9c-24.9,7.3-47.4,17.2-67.4,29.7
		c-20.1,12.6-36.5,27.5-49.2,44.9c-12.8,17.4-19.2,36.2-19.2,56.5c0,14.1,1.9,25.3,5.6,33.7c3.7,8.4,8,14.7,12.9,18.8
		c4.8,4.2,9.8,6.8,14.9,7.9c5.1,1.1,8.7,1.7,10.9,1.7c11,0,20-1.9,27.1-5.6c7-3.7,13.4-7.7,19.2-11.9c5.7-4.2,11.1-8.1,16.2-11.9
		c5.1-3.7,10.9-5.6,17.5-5.6c5.3,0,10.9,1.2,16.9,3.6c5.9,2.4,11.5,6.3,16.5,11.6c5.1,5.3,9.4,12.2,12.9,20.8
		c3.5,8.6,5.3,19.1,5.3,31.4c0,17.6-3.4,32.8-10.2,45.6c-6.8,12.8-15.6,23.5-26.4,32.1c-10.8,8.6-23.1,15-37,19.2
		c-13.9,4.2-27.7,6.3-41.3,6.3c-21.2,0-40.2-3.6-57.2-10.9C64,408,49.6,398,37.7,385.2c-11.9-12.8-20.9-27.8-27.1-44.9
		c-6.2-17.2-9.3-35.5-9.3-54.9c0-36.6,6.8-68.8,20.5-96.8c13.7-28,32.9-52.1,57.8-72.4c24.9-20.3,54.7-37.1,89.6-50.6
		c34.8-13.4,73.4-24.1,115.7-32.1c42.3-7.9,87.6-13.5,135.8-16.8C469,13.5,519.1,11.8,571.1,11.8z M557.9,882.2
		c0,10.1,1,19.7,3,28.7c2,9,5.9,16.9,11.9,23.5c6,6.6,14.1,11.9,24.5,15.9c10.3,4,23.9,5.9,40.6,5.9c24.2,0,46.5-6.9,66.8-20.8
		c20.3-13.9,37.7-31.7,52.2-53.5c14.5-21.8,25.8-46.3,33.7-73.4c7.9-27.1,11.9-54.1,11.9-81c0-40.1-5.4-75.4-16.2-106.1
		c-10.8-30.6-25.9-56.5-45.3-77.7c-19.4-21.2-42.3-37.6-68.7-49.2c-26.4-11.7-55.1-18.4-85.9-20.2l13.2-33.7
		c19.4,0.9,37.9-1.8,55.5-7.9c17.6-6.2,33.1-17,46.6-32.4c13.4-15.4,24.1-36.2,32.1-62.5c7.9-26.2,11.9-59.2,11.9-98.8
		c0-26.9-3.3-51.1-9.9-72.7c-6.6-21.6-15.3-39.8-26.1-54.5c-10.8-14.8-23.4-26.1-37.7-34c-14.3-7.9-29-11.9-44-11.9
		c-9.2,0-18.2,1.1-26.8,3.3c-8.6,2.2-16.1,5.9-22.5,11.2c-6.4,5.3-11.5,12.2-15.2,20.8c-3.8,8.6-5.6,19.3-5.6,32.1V882.2z"/>
</g>
</svg>
