<svg xmlns="http://www.w3.org/2000/svg" width="192" height="187.65" viewBox="0 0 192 187.65"><defs><style>.a{fill:#047857;}</style></defs><path class="a" d="M107.05,0q36,0,53,11.24T177,44a38.37,38.37,0,0,1-1.18,9.82,40.59,40.59,0,0,1-3,8.13,35.33,35.33,0,0,1-4.22,6.52,39.58,39.58,0,0,1-4.85,5,44.51,44.51,0,0,1-13.16,7.95v1.86a51,51,0,0,1,20.74,7,46.35,46.35,0,0,1,7.58,5.9,38.37,38.37,0,0,1,6.64,8.57,48.21,48.21,0,0,1,4.72,11.68,58.34,58.34,0,0,1,1.8,15.21A56.26,56.26,0,0,1,187.28,155a46.54,46.54,0,0,1-14,17.7Q163.94,180,150,183.8t-32.29,3.85q-17,0-27.69-2.11T73.4,179.39a20.65,20.65,0,0,1-8.14-9.74,36.13,36.13,0,0,1-2.17-12.92V20.86q0-6.83-9.44-6.83a49.5,49.5,0,0,0-13.85,2,50.19,50.19,0,0,0-12.66,5.59,33.11,33.11,0,0,0-9.26,8.45,17.59,17.59,0,0,0-3.6,10.62,15.6,15.6,0,0,0,1.06,6.33,10,10,0,0,0,2.42,3.54,6.37,6.37,0,0,0,2.79,1.49,10.34,10.34,0,0,0,7.15-.75,29.48,29.48,0,0,0,3.6-2.23l3-2.24a5.41,5.41,0,0,1,3.29-1.05,8.54,8.54,0,0,1,3.17.68,9.16,9.16,0,0,1,3.1,2.17,12.42,12.42,0,0,1,2.42,3.92,15.36,15.36,0,0,1,1,5.89,18,18,0,0,1-1.93,8.57,19,19,0,0,1-5,6,20.71,20.71,0,0,1-7,3.6,26.69,26.69,0,0,1-7.76,1.18A26.89,26.89,0,0,1,15,75.82a23.84,23.84,0,0,1-8.14-5.65,24.37,24.37,0,0,1-5.09-8.45A30.23,30.23,0,0,1,0,51.42a40.94,40.94,0,0,1,3.85-18.2,40,40,0,0,1,10.87-13.6,61.7,61.7,0,0,1,16.82-9.5,124,124,0,0,1,21.74-6A220.13,220.13,0,0,1,78.8.93Q92.41,0,107.05,0Zm-2.48,163.56a25.2,25.2,0,0,0,.56,5.4,9.54,9.54,0,0,0,2.23,4.41,11.62,11.62,0,0,0,4.6,3,23.52,23.52,0,0,0,20.18-2.79A36.62,36.62,0,0,0,142,163.5a50,50,0,0,0,6.33-13.79,53.93,53.93,0,0,0,2.24-15.21,59.8,59.8,0,0,0-3-19.93A42,42,0,0,0,139,100a38.44,38.44,0,0,0-12.92-9.25,46.38,46.38,0,0,0-16.14-3.79l2.48-6.33a27.45,27.45,0,0,0,10.44-1.49A20.56,20.56,0,0,0,131.58,73a31.38,31.38,0,0,0,6-11.73,65.25,65.25,0,0,0,2.24-18.57A46.67,46.67,0,0,0,138,29.06a34.28,34.28,0,0,0-4.91-10.25A22,22,0,0,0,126,12.42a16.85,16.85,0,0,0-8.26-2.24,20,20,0,0,0-5,.63,10.57,10.57,0,0,0-4.22,2.11,10.2,10.2,0,0,0-2.85,3.91,15,15,0,0,0-1.06,6Z"/></svg>